<mxfile host="multicloud-diagrams" agent="PIP package multicloud-diagrams. Generate resources in draw.io compatible format for Cloud infrastructure. Copyrights @ Roman Tsypuk 2023. MIT license." type="MultiCloud">
	<diagram id="diagram_1" name="AWS components">
		<mxGraphModel dx="1015" dy="661" grid="1" gridSize="10" guides="1" tooltips="1" connect="1" arrows="1" fold="1" page="1" pageScale="1" pageWidth="850" pageHeight="1100" math="0" shadow="1">
			<root>
				<mxCell id="0"/>
				<mxCell id="1" parent="0"/>
				<mxCell id="vertex:kafka:arn:aws:mks:eu-west-1:123456789012/kafka/562320f29dbdc94" value="&lt;b&gt;Name&lt;/b&gt;: arn:aws:mks:eu-west-1:123456789012/kafka/562320f29dbdc94&lt;BR&gt;&lt;b&gt;ARN&lt;/b&gt;: arn:aws:mks:eu-west-1:123456789012/kafka/562320f29dbdc94&lt;BR&gt;-----------&lt;BR&gt;&lt;b&gt;connectivity&lt;/b&gt;: CONNECTED&lt;BR&gt;&lt;b&gt;topics&lt;/b&gt;: 13&lt;BR&gt;&lt;b&gt;messages&lt;/b&gt;: 2048" style="sketch=0;outlineConnect=0;fontColor=#232F3E;gradientColor=#945DF2;gradientDirection=north;fillColor=#5A30B5;strokeColor=#ffffff;dashed=0;verticalLabelPosition=bottom;verticalAlign=top;align=left;html=1;fontSize=12;fontStyle=0;aspect=fixed;shape=mxgraph.aws4.resourceIcon;resIcon=mxgraph.aws4.managed_streaming_for_kafka;" parent="1" vertex="1">
					<mxGeometry width="78" height="78" as="geometry"/>
				</mxCell>
			</root>
		</mxGraphModel>
	</diagram>
</mxfile>